PathFileType	4	(X/Y/Z)	D:\TRACE\v60_Jaco2_6-2-23\ArmBody_Mo2_DMP_1-platform.trc
DataRate	CameraRate	NumFrames	NumMarkers	Units	OrigDataRate	OrigDataStartFrame	OrigNumFrames
100.00	100.00	      87	5	mm	100.00	1638	      6551
Frame#	Time	Left_Front			Right_Front			Left_Aft			Right_Aft			Post			
		X1	Y1	Z1	X2	Y2	Z2	X3	Y3	Z3	X4	Y4	Z4	X5	Y5	Z5	

1638	16.370				810.17291	70.12791	-614.90009	-689.38208	-35.94773	494.00146	728.38226	-41.54312	596.16852	31.64716	1391.80945	-824.06030	
1639	16.380				809.31171	69.56590	-615.14264	-690.45135	-35.60257	493.78534	727.45807	-41.23882	596.03082	30.75004	1391.20764	-824.94226	
1640	16.390				808.46960	69.16257	-615.20099	-691.48633	-35.09563	493.63721	726.29675	-40.96775	595.86066	29.89511	1390.67126	-826.36932	
1641	16.400				807.34192	68.64162	-615.46344	-691.93390	-34.94254	493.70285	725.45697	-40.65765	595.77380	28.76130	1390.15967	-828.14020	
1642	16.410				806.85504	68.18437	-615.77759	-692.87714	-34.51983	493.60770	724.19623	-40.17020	595.61652	28.28389	1389.55225	-830.10712	
1643	16.420				805.90338	67.80466	-615.64996	-694.17389	-33.99906	493.34830	723.64905	-39.73532	595.60364	27.31502	1388.87476	-832.40942	
1644	16.430				804.75366	67.20496	-615.97900	-694.78583	-33.66818	493.31293	722.85156	-39.14640	595.43854	26.38268	1388.20776	-834.42426	
1645	16.440				803.90991	66.64159	-615.91516	-695.81311	-33.34377	493.39029	721.76843	-38.75874	595.29938	25.39319	1387.38538	-836.42700	
1646	16.450				803.09167	65.91712	-616.21368	-696.84265	-32.91320	493.08795	720.78668	-38.21798	595.20221	24.62399	1386.73389	-838.18994	
1647	16.460				802.19653	64.99619	-616.52612	-697.70953	-32.12971	492.82895	719.49792	-37.62694	595.05676	23.66891	1385.63196	-839.96082	
1648	16.470				801.15662	64.64881	-616.60193	-698.78473	-31.91246	492.98105	718.85956	-36.81335	595.11322	22.50233	1384.86267	-841.58167	
1649	16.480				800.20361	64.04424	-616.94623	-699.70831	-31.28621	492.66260	718.38452	-36.06683	595.03784	21.70833	1383.71411	-842.85907	
1650	16.490				798.98267	62.99657	-617.28918	-700.74005	-30.61328	492.52408	716.98157	-35.43097	594.76074	20.42776	1382.45715	-844.10559	
1651	16.500				798.08881	62.08052	-617.56885	-701.87891	-29.95955	492.32556	716.15710	-34.72668	594.65875	19.45107	1381.49231	-845.24030	
1652	16.510				796.82611	61.01935	-618.00592	-702.75354	-29.30126	492.01199	714.98505	-33.93751	594.46014	18.75271	1379.96484	-846.67493	
1653	16.520				796.01965	60.39651	-618.33057	-703.75049	-28.83414	491.99673	713.66791	-33.23023	594.21240	17.77247	1378.88257	-848.27686	
1654	16.530				794.63629	59.39391	-618.72528	-704.91760	-27.91216	491.83179	712.79761	-32.68619	594.08209	16.67019	1377.55054	-850.39374	
1655	16.540				793.95428	58.60712	-618.72809	-706.06323	-27.27202	491.36526	711.39648	-31.99210	593.85120	15.67326	1376.54065	-852.69543	
1656	16.550				792.63000	57.78601	-619.32745	-706.92126	-26.75294	491.33646	710.49854	-31.21103	593.66595	14.68261	1375.42786	-855.25305	
1657	16.560				791.65839	56.67124	-619.63892	-708.08112	-26.03730	491.16992	708.86224	-30.60519	593.48517	13.46267	1374.01538	-857.94659	
1658	16.570				790.61603	55.75405	-619.74744	-709.20392	-25.41592	490.94995	708.01733	-29.76140	593.28912	12.42766	1372.98035	-861.00165	
1659	16.580				789.55585	54.84899	-619.94983	-710.01990	-24.81418	490.89291	707.32330	-28.91882	593.14374	11.46129	1371.77527	-863.86139	
1660	16.590				788.45923	54.01682	-620.16730	-711.13763	-23.84302	490.81714	706.40369	-27.76946	592.91705	10.44674	1370.37817	-866.62860	
1661	16.600				787.43524	52.91681	-620.59351	-712.10022	-23.30603	490.45407	706.28497	-26.29386	592.61884	9.30411	1369.06042	-869.28650	
1662	16.610				786.13312	51.86769	-621.20441	-713.55634	-22.37122	490.30005	704.16113	-26.05510	592.60779	8.12599	1367.52930	-871.60229	
1663	16.620				785.02008	50.65426	-621.39807	-714.60925	-21.71531	490.00085	702.99646	-25.09076	592.34863	7.07454	1365.78088	-873.92279	
1664	16.630				784.13507	49.45578	-621.61566	-715.96582	-20.93964	489.63141	701.79962	-24.15410	592.10577	6.07988	1364.14075	-876.15802	
1665	16.640				782.98962	48.09953	-622.26855	-716.70221	-20.11822	489.45486	700.99969	-23.12793	591.83289	5.15764	1362.52295	-878.45386	
1666	16.650				781.84485	47.23184	-622.54425	-717.94672	-19.13293	489.25363	699.71771	-22.09245	591.59814	3.92441	1361.13452	-880.79614	
1667	16.660				780.79163	45.84264	-622.85480	-718.88721	-18.22479	488.87350	699.15118	-20.66065	591.37018	2.72665	1359.45569	-883.17047	
1668	16.670				779.28589	44.72585	-623.41278	-720.09094	-17.64690	488.76453	697.27515	-20.35920	591.03497	1.53177	1357.67712	-885.59393	
1669	16.680				778.47888	43.36610	-623.70068	-721.34955	-16.67397	488.32297	695.98853	-19.63356	590.82111	0.74504	1356.02710	-888.37439	
1670	16.690				777.42047	42.30293	-623.95129	-722.31696	-15.90157	488.15918	695.04333	-18.53964	590.48511	-0.16124	1354.29016	-891.35638	
1671	16.700				776.34613	41.06319	-624.29346	-723.66901	-15.01557	487.93463	693.27612	-17.67175	590.20477	-1.33526	1352.83704	-894.54333	
1672	16.710				774.86853	39.93436	-624.57208	-724.48145	-13.99738	487.66296	692.58160	-16.59308	589.81165	-2.82625	1351.11279	-897.55981	
1673	16.720				774.07465	38.80919	-625.12067	-725.79608	-13.13713	487.48056	690.07306	-16.30567	589.08459	-3.85762	1349.33203	-900.75842	
1674	16.730				772.75073	37.43870	-625.53229	-726.88904	-12.37344	487.30499	687.99152	-15.83324	588.67310	-4.81986	1347.62427	-903.96033	
1675	16.740				771.61322	35.97801	-625.73145	-728.24622	-11.36370	486.81207	690.41632	-12.23624	589.46173	-5.79326	1345.67822	-907.04498	
1676	16.750				770.52014	34.91505	-626.15039	-729.15521	-10.54177	486.64615	689.15247	-11.28868	589.10150	-7.19891	1343.77734	-910.02075	
1677	16.760				769.44550	33.50346	-626.53015	-730.25134	-9.32434	486.28275	688.14026	-9.97785	588.78241	-8.28255	1341.95117	-913.13330	
1678	16.770				768.15674	32.10418	-627.02100	-731.45917	-8.28865	485.98230	686.83130	-9.10300	588.52148	-9.37914	1340.00500	-916.18744	
1679	16.780				767.11176	30.57093	-627.63867	-732.73407	-7.53276	485.63766	685.88434	-7.82439	588.25897	-10.61921	1337.91199	-919.11072	
1680	16.790				766.05878	29.29633	-627.78802	-733.79230	-6.64729	485.32516	684.54688	-6.70339	587.95392	-11.46894	1336.11255	-922.20581	
1681	16.800				764.77759	27.86736	-628.11102	-734.93213	-5.67592	485.04135	683.72070	-5.36066	587.73212	-12.53425	1334.15039	-925.24988	
1682	16.810				763.63458	26.57859	-628.57153	-735.93164	-4.85281	484.75470	682.29791	-4.26786	587.33533	-13.32847	1332.13477	-928.34875	
1683	16.820				762.71967	25.33240	-628.78015	-737.10785	-3.70121	484.33588	681.43005	-3.24075	587.10931	-14.64861	1330.31885	-931.38403	
1684	16.830				761.65472	23.87653	-629.30267	-737.92505	-2.82714	484.18677	680.18597	-2.15057	586.69067	-15.76466	1328.36401	-934.60931	
1685	16.840				760.39569	22.65633	-629.65509	-739.18323	-1.95664	483.78647	679.01343	-1.28412	586.35754	-16.61640	1326.25977	-937.71613	
1686	16.850				759.34882	21.14248	-629.63110	-740.43408	-0.90524	483.51669	678.00629	0.02190	586.00690	-17.81942	1324.28137	-940.56726	
1687	16.860				758.23450	19.76354	-630.53400	-741.29816	-0.02338	483.18713	676.87976	1.10754	585.69434	-19.04702	1322.22290	-943.66510	
1688	16.870				757.08679	18.54059	-630.97626	-742.51001	1.28069	482.78549	676.11469	2.52367	585.39795	-19.78166	1320.16553	-946.48547	
1689	16.880				756.06982	16.55566	-631.21069	-743.36694	2.24145	482.48752	674.59717	3.47108	585.00800	-21.64509	1318.08765	-949.68268	
1690	16.890				755.25787	15.02017	-631.59375	-744.91089	3.22217	482.02689	673.80170	4.95400	584.65680	-22.10840	1315.80017	-952.90723	
1691	16.900				753.77338	13.52471	-632.05029	-745.80261	4.18734	481.61047	673.08307	6.43606	584.18451	-23.05557	1313.33594	-956.23224	
1692	16.910				752.61108	12.10920	-632.44708	-746.83783	5.10880	481.32819	671.42676	7.25770	583.88116	-23.73854	1311.20178	-959.68634	
1693	16.920				752.19470	10.94888	-632.62946	-747.79407	6.15598	480.94067	671.31781	8.84426	583.81177	-24.92602	1309.32861	-963.15790	
1694	16.930				751.09344	9.25986	-632.98779	-748.47339	7.21934	480.61841	669.45886	9.51055	583.35364	-26.06206	1307.32397	-966.94012	
1695	16.940				749.87213	8.34216	-633.28723	-749.72919	8.11388	480.40765	669.56506	11.22976	583.14294	-27.16170	1305.44995	-970.47156	
1696	16.950				748.95477	6.86352	-633.71344	-750.57532	8.80562	480.09161	667.23987	11.58489	582.50317	-27.95402	1303.40417	-973.84210	
1697	16.960				748.03613	5.12820	-633.78918	-751.83179	9.78705	480.01813	666.53351	12.74643	582.09894	-28.97827	1301.16907	-976.88776	
1698	16.970				747.12708	3.95822	-633.98981	-752.69537	10.66401	479.74463	665.40765	13.76122	581.85907	-29.73901	1299.33606	-979.82727	
1699	16.980				746.24084	2.72084	-634.65790	-753.44659	11.72684	479.17957	664.37421	14.96136	581.53375	-30.53681	1297.19800	-982.80176	
1700	16.990				745.22308	1.76754	-634.80371	-754.61987	12.70844	478.73697	663.77350	16.25761	581.37933	-31.84046	1295.25537	-985.49756	
1701	17.000				744.21564	-0.10747	-635.12720	-755.59918	13.60939	478.36972	662.66571	17.11427	580.93817	-32.69189	1293.30664	-987.98578	
1702	17.010				743.47607	-1.68068	-635.63177	-756.40375	14.62975	477.97992	662.00232	18.28918	580.54211	-33.27222	1290.82898	-990.28357	
1703	17.020				742.57776	-3.07845	-635.92096	-757.32605	15.37249	477.74591	661.13940	19.60864	580.03607	-34.42718	1288.75208	-992.64618	
1704	17.030				741.78699	-4.25025	-636.11786	-758.19214	16.78975	477.30170	660.76715	21.18034	579.71741	-35.01947	1286.55225	-995.39404	
1705	17.040				740.71082	-5.97915	-636.83850	-758.84515	17.32442	476.87491	659.23865	21.86281	579.33099	-35.99252	1284.51941	-998.16034	
1706	17.050				740.07214	-6.96141	-636.94586	-759.92316	18.64773	476.44482	659.33954	23.40135	579.13025	-36.72432	1282.44092	-1000.93939	
1707	17.060				739.26947	-8.42267	-637.08154	-760.50684	19.26623	476.27890	657.50293	23.95556	578.66821	-37.57695	1280.40723	-1004.27777	
1708	17.070				738.06586	-10.00050	-637.56232	-761.51752	20.20457	475.79507	656.98291	25.21537	578.22052	-38.25041	1278.14880	-1007.55054	
1709	17.080				737.62433	-10.99760	-637.77393	-762.11755	20.91759	475.67160	656.39856	26.24797	577.83142	-38.77628	1276.15247	-1011.08160	
1710	17.090				737.09521	-12.36404	-638.07373	-762.76874	21.97038	475.16452	655.44971	27.22085	577.52490	-39.43515	1274.33313	-1014.29590	
1711	17.100				736.28784	-13.71749	-638.27069	-763.51978	22.93106	474.62381	654.87671	28.25167	577.31860	-39.91949	1272.32544	-1018.04047	
1712	17.110				735.65356	-14.71252	-638.48645	-764.03992	23.41857	474.74936	654.37402	29.30233	577.01459	-40.85464	1270.49756	-1021.14655	
1713	17.120				734.80267	-16.05442	-638.82153	-764.77252	24.38417	474.17780	652.43549	29.27124	577.24475	-41.26503	1268.52795	-1024.23547	
1714	17.130				734.49402	-17.46195	-638.79895	-764.99225	24.57058	474.07214	652.19934	30.50805	576.68298	-41.86646	1266.47021	-1027.01697	
1715	17.140				733.85205	-18.65738	-639.14471	-765.75623	25.88900	473.61969	651.61584	31.61390	576.23932	-42.30021	1264.48132	-1029.79395	
1716	17.150				732.99847	-19.73161	-639.65131	-766.70404	27.34920	473.28525	651.19220	32.72218	575.85132	-43.01939	1262.55078	-1032.47449	
1717	17.160				733.03516	-21.11233	-639.53296	-766.74518	27.49445	473.21063	650.76886	33.63747	575.38123	-43.44029	1260.66895	-1035.08472	
1718	17.170				732.32092	-22.40122	-640.10168	-768.04199	29.44768	471.78705	649.96942	34.61052	574.82751	-43.57130	1258.58826	-1037.12256	
1719	17.180				731.83875	-23.55435	-640.06616	-767.97101	29.59032	472.08658	649.48627	35.48346	574.37805	-44.49549	1256.78918	-1039.51465	
1720	17.190				731.44373	-24.92159	-640.57483	-768.05908	30.07051	471.88544	649.21326	36.66298	573.86224	-44.54733	1254.77295	-1041.67993	
1721	17.200				731.21832	-25.91634	-640.46619	-768.79376	31.27242	471.37885	649.08783	37.58775	573.56396	-45.12201	1253.03040	-1043.59302	
1722	17.210				730.59503	-27.00642	-641.03058	-769.34351	31.99564	471.13858	648.69714	38.45686	573.35901	-45.34549	1251.28540	-1045.69019	
1723	17.220				730.81317	-28.01351	-641.10303	-769.41241	32.72141	470.93954	648.49243	39.34403	573.16040	-45.47326	1249.49353	-1047.63757	
1724	17.230				730.35840	-29.47186	-641.30432	-769.50232	33.32866	470.58618	648.35791	40.29992	572.85101	-45.74590	1247.91614	-1049.58044	
